<svg width="700" height="93" viewBox="0 0 700 93" fill="none" xmlns="http://www.w3.org/2000/svg">
<path d="M89.6071 58.0061H74.6877V92.2678H89.6071V58.0061Z" fill="#1D2951"/>
<path d="M37.3176 2.92651L37.3211 74.401H52.2824V17.8004H74.6842V37.1882H89.6035V2.92651H37.3176Z" fill="#1D2951"/>
<path d="M89.607 40.1357H55.2439V55.0131H89.607V40.1357Z" fill="#F7AB00"/>
<path d="M14.9194 55.0551H34.3631V40.1357H0V92.2678H71.6842V77.3904H14.9194V55.0551Z" fill="#F7AB00"/>
<path d="M141.421 40.3105C156.673 40.3105 163.669 49.3139 163.669 58.3173H152.732C152.732 53.2579 148.641 49.2405 141.498 49.2405C134.355 49.2405 127.732 53.8523 127.732 66.2052C127.732 78.5582 134.355 83.9882 141.498 83.9882C148.641 83.9882 152.956 79.226 152.956 74.1667H163.746C163.746 83.17 156.676 92.9146 141.425 92.9146C126.173 92.9146 116.128 83.1665 116.128 66.2052C116.128 49.244 126.173 40.314 141.425 40.314L141.421 40.3105Z" fill="#010101"/>
<path d="M168.879 41.4259H205.336V50.3559H179.665V60.6983H200.871V69.6283H179.665V82.8728H205.336V91.8028H168.879V41.4329V41.4259Z" fill="#010101"/>
<path d="M210.472 41.4259H229.074C244.325 41.4259 251.395 47.5272 251.395 58.8347C251.395 70.1423 243.731 76.9149 229.074 76.9149H221.262V91.7958H210.472V41.4259ZM229.969 67.9884C236.07 67.7647 240.161 65.3836 240.161 58.8382C240.161 52.2929 236.143 50.3559 229 50.3559H221.262V67.9884H229.969Z" fill="#010101"/>
<path d="M256.531 41.4259H284.803V50.3559H267.318V91.7993H256.528V41.4294L256.531 41.4259Z" fill="#010101"/>
<path d="M288.454 41.4259H299.244V91.7958H288.454V41.4259Z" fill="#010101"/>
<path d="M314.495 75.0583C307.649 72.4535 304.377 67.2472 304.377 59.5096C304.377 47.8279 312.041 41.4294 326.698 41.4294H345.299V91.7993H334.509V76.9184H325.282L316.205 91.7993H304.373L314.492 75.0583H314.495ZM326.771 67.9885H334.509V50.3559H325.803C319.701 50.5797 315.611 53.0341 315.611 59.5061C315.611 65.978 319.628 67.9885 326.771 67.9885Z" fill="#010101"/>
<path d="M371.197 41.4259H413.98V91.7958H403.19V50.3524H381.984V91.7958H371.194V41.4259H371.197Z" fill="#010101"/>
<path d="M421.347 41.4259H439.948C455.199 41.4259 462.269 47.5272 462.269 58.8347C462.269 70.1423 454.605 76.9149 439.948 76.9149H432.137V91.7958H421.347V41.4259ZM440.84 67.9884C446.941 67.7647 451.032 65.3836 451.032 58.8382C451.032 52.2929 447.014 50.3559 439.871 50.3559H432.133V67.9884H440.84Z" fill="#010101"/>
<path d="M467.402 41.4259H478.192V76.9918L500.513 41.4259H513.164V91.7958H502.374V56.2299L480.052 91.7958H467.402V41.4259Z" fill="#010101"/>
<path d="M516.81 41.4259H557.362V50.3559H542.481V91.7993H531.691V50.3559H516.81V41.4259Z" fill="#010101"/>
<path d="M569.044 41.4259L583.851 67.8381L595.981 41.4259H607.886L589.358 78.6282C585.044 86.663 579.166 91.7993 570.981 91.7993H567.334V82.4253H570.757C573.806 82.4253 576.785 81.0861 578.348 77.5163L557.292 41.4294H569.047L569.044 41.4259Z" fill="#010101"/>
<path d="M604.089 81.6806H606.173C610.341 81.6806 613.019 74.0898 613.019 57.6495V41.4294H646.871V91.7993H636.081V50.3559H623.805V59.6564C623.805 83.3169 616.812 91.7993 606.397 91.7993H604.089V81.6806Z" fill="#010101"/>
<path d="M654.238 41.4259H665.029V76.9918L687.35 41.4259H700V91.7958H689.21V56.2299L666.889 91.7958H654.238V41.4259Z" fill="#010101"/>
<path d="M119.649 4.74463H124.428V13.283H134.152V4.74463H138.932V27.0625H134.152V17.2375H124.428V27.0625H119.649V4.74463Z" fill="#010101"/>
<path d="M148.659 4.74463H153.9L162.208 27.0625H157.099L155.582 22.5136H146.911L145.393 27.0625H140.449L148.659 4.74463ZM154.26 18.5591L151.229 9.42638L148.229 18.5591H154.26Z" fill="#010101"/>
<path d="M163.725 4.74471H172.295C178.725 4.74471 181.525 7.4475 181.525 10.8111C181.525 13.1852 180.403 14.6362 178.361 15.4578C180.966 16.3809 182.515 18.0627 182.515 20.6326C182.515 24.4892 179.449 27.0591 173.284 27.0591H163.725V4.74121V4.74471ZM171.931 13.8774C174.536 13.8774 176.546 13.1852 176.546 11.1397C176.546 9.29361 174.767 8.69922 172.26 8.69922H168.501V13.8739H171.931V13.8774ZM173.249 23.1081C175.854 23.1081 177.536 22.3493 177.536 20.3074C177.536 18.4613 175.428 17.5068 172.921 17.5068H168.505V23.1116H173.253L173.249 23.1081Z" fill="#010101"/>
<path d="M183.7 4.74463H188.315V11.1397C188.315 14.1711 189.336 15.5242 192.27 15.5242H196.721V4.74463H201.5V27.0625H196.721V19.4787H192.238C185.745 19.4787 183.7 16.3144 183.7 11.1397V4.74463Z" fill="#010101"/>
<path d="M211.228 4.74463H216.469L224.776 27.0625H219.668L218.151 22.5136H209.48L207.962 27.0625H203.018L211.228 4.74463ZM216.833 18.5591L213.801 9.42638L210.801 18.5591H216.833Z" fill="#010101"/>
<path d="M224.644 22.5801H225.567C227.413 22.5801 228.598 19.2165 228.598 11.9334V4.74817H243.598V27.066H238.818V8.70268H233.378V12.825C233.378 23.3073 230.28 27.066 225.665 27.066H224.644V22.5836V22.5801Z" fill="#010101"/>
<path d="M246.766 4.74463H251.545V11.3389H255.007C261.765 11.3389 264.898 14.0417 264.898 19.0521C264.898 24.0625 261.503 27.0625 255.007 27.0625H246.766V4.74463ZM254.972 23.108C257.905 23.108 259.916 22.087 259.916 19.0521C259.916 16.2165 258.136 15.2934 254.972 15.2934H251.542V23.1045H254.972V23.108Z" fill="#010101"/>
<path d="M267.073 4.74463H271.853V13.283H281.576V4.74463H286.356V27.0625H281.576V17.2375H271.853V27.0625H267.073V4.74463Z" fill="#010101"/>
<path d="M289.524 4.74463H294.303V20.5032L304.195 4.74463H309.8V27.0625H305.02V11.304L295.129 27.0625H289.524V4.74463Z" fill="#010101"/>
<path d="M312.96 4.74467H317.74V20.5032L327.632 4.74467H333.236V27.0625H328.457V11.304L318.565 27.0625H312.96V4.74467ZM321.467 0C321.534 0.594397 322.128 1.5839 322.95 1.5839H323.278C324.104 1.5839 324.695 0.594397 324.761 0H329.243C328.88 2.33913 326.275 4.2517 323.376 4.2517H322.848C319.946 4.2517 317.342 2.33913 316.981 0H321.464H321.467Z" fill="#010101"/>
<path d="M344.509 4.74463H349.289V23.108H358.684V4.74463H363.463V23.108H366.1V32.8981H361.32V27.0625H344.509V4.74463Z" fill="#010101"/>
<path d="M367.617 4.74471H383.771V8.69922H372.397V13.2831H381.792V17.2376H372.397V23.1046H383.771V27.0591H367.617V4.74121V4.74471Z" fill="#010101"/>
<path d="M385.949 4.74463H390.729V13.283H400.452V4.74463H405.232V27.0625H400.452V17.2375H390.729V27.0625H385.949V4.74463Z" fill="#010101"/>
<path d="M406.749 4.74463H424.714V8.69914H418.12V27.0625H413.34V8.69914H406.746V4.74463H406.749Z" fill="#010101"/>
<path d="M426.231 4.74463H434.473C441.231 4.74463 444.364 7.44741 444.364 12.4578C444.364 17.4682 440.969 20.4682 434.473 20.4682H431.011V27.0625H426.231V4.74463ZM434.871 16.5137C437.574 16.4158 439.389 15.3599 439.389 12.4578C439.389 9.55577 437.609 8.69914 434.445 8.69914H431.018V16.5137H434.875H434.871Z" fill="#010101"/>
<path d="M463.549 6.72363H464.374V4.74463H469.154V6.72363H469.979C476.738 6.72363 479.87 10.4159 479.87 15.4263C479.87 20.4367 476.475 24.4262 469.979 24.4262H469.154V27.0625H464.374V24.4262H463.549C457.056 24.4262 453.658 20.6011 453.658 15.4263C453.658 10.2516 456.79 6.72363 463.549 6.72363ZM463.581 20.4717H464.371V10.6816H463.35C460.318 10.7795 458.637 12.3634 458.637 15.4298C458.637 18.7934 460.647 20.4752 463.581 20.4752V20.4717ZM469.944 20.4717C472.878 20.4717 474.888 18.7899 474.888 15.4263C474.888 12.262 473.108 10.6781 469.944 10.6781H469.154V20.4682H469.944V20.4717Z" fill="#010101"/>
<path d="M492.594 4.25171C499.517 4.25171 504.132 8.53834 504.132 15.7235C504.132 22.9087 499.517 27.559 492.594 27.559C485.671 27.559 481.056 22.9122 481.056 15.7235C481.056 8.53484 485.671 4.25171 492.594 4.25171ZM492.594 23.6011C495.923 23.6011 499.024 20.8633 499.024 15.72C499.024 10.5768 495.926 8.20267 492.594 8.20267C489.262 8.20267 486.168 10.5768 486.168 15.72C486.168 20.8633 489.265 23.6011 492.594 23.6011Z" fill="#010101"/>
<path d="M506.307 4.74463H511.087V13.283H520.811V4.74463H525.59V27.0625H520.811V17.2375H511.087V27.0625H506.307V4.74463Z" fill="#010101"/>
<path d="M529.317 23.108C529.943 21.2619 530.733 17.8004 530.733 11.9334V4.74817H546.723V23.1115H549.359V32.9016H544.579V27.066H531.887V32.9016H527.108V23.1115H529.317V23.108ZM541.943 23.108V8.70268H535.513V12.825C535.513 18.164 534.723 21.3948 534.097 23.1115H541.943V23.108Z" fill="#010101"/>
<path d="M554.439 4.74463L560.999 16.4473L566.373 4.74463H571.649L563.439 21.2269C561.527 24.7863 558.922 27.0625 555.296 27.0625H553.681V22.9087H555.198C556.551 22.9087 557.869 22.3143 558.562 20.7339L549.233 4.74463H554.443H554.439Z" fill="#010101"/>
</svg>
